<?xml version="1.0" standalone="no"?>
<!DOCTYPE svg PUBLIC "-//W3C//DTD SVG 20010904//EN"
 "http://www.w3.org/TR/2001/REC-SVG-20010904/DTD/svg10.dtd">
<svg version="1.0" xmlns="http://www.w3.org/2000/svg"
 width="920.000000pt" height="399.000000pt" viewBox="0 0 920.000000 399.000000"
 preserveAspectRatio="xMidYMid meet">

<g transform="translate(0.000000,399.000000) scale(0.100000,-0.100000)"
fill="rgba(52, 112, 255, 1)" stroke="none">
<path d="M4878 3571 c-53 -3 -99 -9 -103 -13 -3 -3 9 -11 29 -18 19 -6 46 -20
60 -31 62 -49 25 -66 -279 -130 -270 -57 -413 -116 -642 -268 -214 -141 -261
-156 -394 -128 -41 8 -98 18 -128 21 -92 9 -341 -15 -511 -50 -70 -14 191 172
405 289 138 76 281 141 445 203 63 24 107 43 97 44 -32 0 -239 -71 -382 -132
-331 -141 -835 -424 -835 -469 0 -5 53 -9 118 -9 64 0 191 -5 282 -10 91 -5
323 -19 515 -30 193 -11 420 -27 505 -35 277 -26 357 -19 475 41 179 91 644
425 893 642 49 43 60 57 49 64 -39 21 -376 32 -599 19z"/>
<path d="M5878 3534 c-233 -42 -503 -227 -869 -595 -134 -135 -265 -294 -276
-337 -7 -31 7 -56 34 -60 25 -4 1214 146 1488 187 105 16 173 29 153 30 -135
4 -1019 -37 -1207 -56 l-63 -6 70 71 c40 39 85 75 104 81 18 5 137 17 263 26
423 29 625 78 670 165 21 41 19 51 -21 125 -63 114 -49 192 42 239 32 17 61
22 169 24 109 3 150 0 256 -22 228 -46 466 -145 556 -231 57 -55 56 -82 -2
-205 -25 -52 -45 -101 -45 -109 0 -18 81 -10 252 27 l127 27 -48 102 c-59 122
-108 178 -215 244 -192 118 -585 233 -936 273 -164 19 -397 19 -502 0z"/>
<path d="M3565 2295 c-261 -35 -291 -45 -115 -40 80 2 163 1 184 -3 38 -7 68
-34 53 -48 -4 -4 -60 -11 -124 -16 -65 -5 -119 -11 -121 -13 -2 -2 11 -17 30
-33 18 -17 31 -32 28 -35 -3 -2 -66 -18 -140 -36 -123 -30 -236 -68 -227 -77
6 -7 454 66 530 86 70 18 74 21 160 111 50 52 87 99 85 108 -5 25 -142 23
-343 -4z"/>
<path d="M7689 2170 c-164 -86 -279 -413 -279 -792 0 -81 -4 -149 -8 -152 -5
-3 -116 -14 -248 -26 -540 -46 -687 -66 -1474 -195 -283 -47 -544 -88 -579
-91 -60 -7 -64 -6 -57 12 4 10 16 70 27 132 78 458 -78 879 -368 993 -48 19
-78 23 -168 23 -102 0 -116 -2 -185 -32 -148 -63 -289 -197 -369 -351 -91
-175 -140 -382 -161 -676 -12 -172 -22 -226 -45 -245 -26 -22 -234 -32 -705
-32 -526 -2 -545 0 -700 72 -140 65 -217 82 -430 100 -207 17 -592 63 -795 95
-26 4 -23 1 18 -21 94 -49 225 -97 426 -154 112 -32 206 -61 209 -64 3 -3 -9
-6 -26 -6 -17 0 -79 -9 -138 -21 -176 -34 -275 -80 -254 -118 39 -74 411 -141
1040 -186 361 -26 1151 -39 1650 -26 767 19 1062 57 1934 251 590 130 630 136
1376 205 212 19 407 40 435 47 114 26 218 204 260 447 26 144 15 332 -30 506
-41 161 -113 278 -192 311 -46 20 -121 17 -164 -6z m188 -169 c168 -122 214
-526 88 -786 -61 -126 -130 -185 -215 -185 -77 0 -140 54 -192 165 -75 160
-78 421 -8 607 31 84 95 174 143 203 61 36 131 35 184 -4z m-3212 -190 c195
-93 311 -378 276 -677 -19 -168 -59 -277 -147 -400 -52 -73 -101 -115 -181
-151 -209 -96 -432 66 -509 372 -24 97 -25 303 0 408 43 187 133 335 253 419
98 67 208 77 308 29z"/>
<path d="M7709 1897 c-85 -57 -145 -196 -155 -361 -14 -216 80 -416 194 -416
85 0 153 71 199 205 24 71 27 95 28 215 0 116 -3 145 -23 202 -53 152 -153
216 -243 155z"/>
<path d="M4422 1644 c-210 -104 -301 -502 -175 -760 100 -205 299 -244 443
-88 61 65 83 104 116 199 25 72 28 94 29 215 0 143 -9 188 -61 292 -75 148
-221 208 -352 142z"/>
<path d="M2375 2058 c7 -32 45 -219 45 -224 0 -3 9 0 20 6 11 6 97 30 192 54
255 65 288 83 84 46 -191 -35 -224 -26 -296 79 -44 66 -53 74 -45 39z"/>
<path d="M1145 1905 c65 -54 270 -130 380 -140 108 -11 456 27 587 62 16 5
-82 7 -217 5 -177 -3 -282 1 -382 12 -119 14 -304 50 -368 71 l-20 7 20 -17z"/>
<path d="M2955 1380 c-208 -11 -238 -17 -271 -51 l-28 -29 280 -1 c333 -1 399
-11 249 -38 -89 -16 -220 -29 -410 -41 -93 -6 -180 -14 -193 -17 -32 -8 -24
-32 18 -61 l35 -24 255 6 c332 8 528 29 545 57 17 27 -82 174 -131 195 -36 15
-113 16 -349 4z"/>
</g>
</svg>
